<svg width="40" height="40" xmlns="http://www.w3.org/2000/svg"><g fill="none"><path d="M0 20c0 11.066 9 20 20 20s20-8.934 20-20S31 0 20 0 0 8.934 0 20z" fill="#E6EFF9"/><path d="M32.5 34.91c-1.8-1.078-8-.882-8.6-2.644-.2-.49-.2-1.175-.2-1.86 0-1.567.2-3.231.2-3.231L20 26l-3.9 1.175s.3 1.664.2 3.23c0 .686-.1 1.273-.2 1.763-.6 1.762-6.8 1.566-8.6 2.643-.2.098-.4.294-.5.49C10.5 38.238 15 40 20 40s9.5-1.762 13-4.7c-.1-.097-.3-.293-.5-.39z" fill="#FCCCA7"/><path d="M22.927 32.194L20 32.681 17.268 32l-5.17 2.139L12 37.347A19.957 19.957 0 0020 39c2.83 0 5.561-.583 8-1.653l-.098-3.208-4.975-1.945z" fill="#FFF"/><path d="M20 27l-4 1.263s.4 2.105.3 3.79c.7.842 3.6.947 3.7.947 0 0 3-.21 3.7-1.053 0-1.684.3-3.79.3-3.79L20 27z" fill="#EFAD7D"/><path d="M20.197 40H20h.197zm-4.136-7.99c-.591 1.798-6.796 1.598-8.569 2.697-.197.1-.295.3-.492.5A19.629 19.629 0 0019.902 40l-1.478-5.393c-1.772 0-2.265-2.797-2.363-2.597zm16.447 2.797c-1.773-1.099-7.88-.8-8.47-2.597-.099-.3-.591 2.397-2.56 2.397L20 40c4.924 0 9.455-1.798 13-4.894-.197-.1-.295-.2-.492-.3z" fill="#19AAF7"/><path d="M10.8 17.04c-1.051.319-.764 2.02-.764 2.659 0 .638.86 2.872 1.434 3.19 1.53.64 1.53-1.7 1.53-1.7v-2.765s-1.147-1.702-2.2-1.383z" fill="#FCCCA7"/><path d="M29.129 17.04C28.065 16.722 27 18.415 27 18.415v2.752s0 2.433 1.548 1.693C29.13 22.542 30 20.32 30 19.685c-.097-.529.194-2.222-.871-2.645z" fill="#FBC69A"/><path d="M25.958 8.767c-2.874-2.356-7.903-2.356-10.879 0C12.103 11.227 12 13.993 12 17.886c0 3.996.308 5.123.308 5.123s.513 2.97 1.129 3.688c.616.717 1.231 1.127 3.079 2.664C18.26 30.795 19.082 31 20.416 31h.205c1.334 0 2.258-.102 3.9-1.64 1.848-1.536 2.464-1.946 3.08-2.663.615-.717 1.128-3.688 1.128-3.688v-.103s.206-1.024.206-5.02c.205-3.893.102-6.66-2.977-9.119z" fill="#FCCCA7"/><path d="M25.13 8.744C23.777 7.513 21.937 7 20 7v24h.097c1.258 0 2.13-.103 3.679-1.641 1.742-1.538 2.323-1.949 2.904-2.667.58-.718 1.065-3.692 1.065-3.692v-.103s.193-1.025.193-5.025c.194-3.898.097-6.667-2.807-9.128z" fill="#FBC69A"/><path d="M16 18c-.6 0-1 .4-1 1s.4 1 1 1 1-.4 1-1-.5-1-1-1z" fill="#683C11"/><path d="M24.178 16c-1.07 0-1.848 1.125-2.14 1.625-.292.5 1.167-.375 2.14-.5C25.248 17 27 18 27 18s-1.265-2-2.822-2z" fill="#3B2314"/><path d="M24 18c-.6 0-1 .4-1 1s.4 1 1 1 1-.4 1-1-.5-1-1-1z" fill="#432918"/><path d="M15.822 16C14.265 16 13 18 13 18s1.654-.875 2.822-.75c.973.125 2.432.875 2.14.5-.292-.625-.973-1.75-2.14-1.75z" fill="#3B2314"/><path d="M16 18c-.6 0-1 .4-1 1s.4 1 1 1 1-.4 1-1-.5-1-1-1z" fill="#432918"/><path fill="#FFF" d="M19.455 25.071H18.09L17 25v.071l1.273.786 2.545.143L22 25.071 21.09 25z"/><path d="M19.994 25.143L18.19 25l-.19.143s-.094.857 2.09.857c2.183 0 1.898-.857 1.898-.857h-1.994z" fill="#FFF"/><path d="M20.103 25.333c-.206 0-.413-.333-.827-.333-.62 0-2.276.333-2.276.333s.414.667 3 .667c2.897 0 3-.5 3-.5s-1.448-.5-1.965-.333c-.518 0-.621.166-.932.166z" fill="#EDA47E"/><path d="M20 26.33c-1.655 0-2.69-1.22-2.69-1.22L17 25s.931 2.107 3 1.996c2.38 0 3-1.996 3-1.996l-.31.11c-.104 0-.931 1.22-2.69 1.22z" fill="#EDA47E"/><path fill="#30302E" d="M19 39.7l.95.298.95-.298-.3-3.7h-1.3z"/><path d="M20.111 33s-1.468.097-1.92.677c-.79 1.258 1.13 2.323 1.13 2.323h1.468s1.582-.968 1.13-1.935C21.693 33.29 20.11 33 20.11 33z" fill="#1D1D1B"/><path fill="#306F90" d="M15 32.075L17.5 35l2.5-2.453L16.019 30zm5 .472L22.596 35 25 31.981 24.038 30z"/><path d="M28.933 13.464s0-.101 0 0c0-.202 0-.404-.1-.606-.102-1.112-.305-3.436-1.115-4.548 0 0-1.419-2.83-5.472-3.234C14.85 4.37 11 8.816 11 8.816s1.216.404 1.013 4.648c0 .505-.101 1.111-.101 1.718v.1c0 1.214 0 2.73.101 4.346 0 .202.507.91.71-.404.1-1.213.303-3.234.709-4.952.101-.606 1.013-3.436 3.546-2.93 1.62.303 1.722.505 3.445.505 2.634.101 2.938-.606 4.356-.505 1.115.1 1.723.505 2.23 1.415.709 2.02 1.013 4.951 1.114 6.467.101 1.213.608.606.71.404.202-2.526.202-4.648.1-6.164z" fill="#3B2314"/><path d="M28.38 18v3.201c0 1.359-.606 2.814-1.212 3.105-1.515.873-2.223-.097-2.223-.097s-.606-.776-2.121-1.358c-1.213-.485-2.223.194-2.223.194s-.91-.582-2.223-.194c-1.515.582-2.121 1.358-2.121 1.358s-.606 1.067-2.223.097c-.606-.388-1.212-1.843-1.212-3.105V18l-.707.097s-.506 5.142.606 7.276c.606 1.067 2.525 3.493 4.95 4.948.91.582 1.92.679 2.829.679.91 0 1.92-.194 2.829-.68 2.425-1.357 4.344-3.88 4.95-4.947 1.112-2.134.606-7.276.606-7.276L28.38 18zm-4.95 8.537c-1.01.776-1.617 1.164-2.223.68-.404-.292-.606-.68-.606-.68s-.202.388-.606.68c-.606.484-1.212.096-2.223-.68-1.01-.776-.606-2.328.505-2.425 2.627-.194 2.324-.582 2.324-.582s-.202.388 2.324.582c1.111.194 1.515 1.65.505 2.425z" fill="#3B2314"/><path d="M19.08 18.177c-.25.089.167.71.167.71s.835-.444 1.42.09c.25.177.333-.711.333-.711s-1.002-.533-1.92-.09z" fill="#1D1D1B"/><path d="M19.08 18.25s-.409-1.146-4.293-1.25c-3.885 0-3.782 1.354-3.782 1.354s-.307 3.542 4.088 3.646c4.396 0 4.191-3.02 4.191-3.02l-.204-.73zm-4.089 3.437c-3.169 0-3.27-2.187-3.27-2.708 0-.833.51-1.562 3.27-1.562 2.351 0 3.782.52 3.782 1.458 0 1.042-.715 2.812-3.782 2.812zM25.213 17c-3.884 0-4.293 1.146-4.293 1.146l-.204.729s-.205 3.02 4.19 3.02c4.396 0 4.09-3.54 4.09-3.54s.102-1.25-3.783-1.355zm-.306 4.687c-3.17 0-3.783-1.77-3.783-2.812 0-.937 1.431-1.458 3.783-1.458 2.76 0 3.27.729 3.27 1.562 0 .521-.102 2.708-3.27 2.708z" fill="#1D1D1B"/><path d="M15.246 18C12.507 18 12 18.683 12 19.463c0 .488.101 2.537 3.246 2.537S19 20.341 19 19.366C19 18.488 17.58 18 15.246 18z" fill="#FDD6BA"/><path d="M24.754 18C22.42 18 21 18.488 21 19.366c0 .975.609 2.634 3.754 2.634S28 19.951 28 19.463c0-.78-.406-1.463-3.246-1.463z" fill="#FCD1B0"/><path d="M15 18.977c0 .558.479.93.957.93.575 0 .958-.372.958-.93 0-.372-.192-.651-.479-.837a.89.89 0 00-.957 0c-.288.279-.479.558-.479.837zm7.085.093c0 .558.479.93.958.93.574 0 .957-.372.957-.93s-.479-.93-.957-.93c-.48 0-.958.372-.958.93z" fill="#695447"/></g></svg>