<svg width="150" height="150" xmlns="http://www.w3.org/2000/svg" xmlns:xlink="http://www.w3.org/1999/xlink"><defs><radialGradient cx="113.548%" cy="33.491%" fx="113.548%" fy="33.491%" r="118.491%" gradientTransform="matrix(.60716 0 0 1 .446 0)" id="c"><stop stop-color="#FEF4D0" offset="0%"/><stop stop-color="#F8AD72" offset="34.16%"/><stop stop-color="#F82075" offset="69.55%"/><stop stop-color="#412F6D" offset="100%"/></radialGradient><radialGradient cx="-40.333%" cy="92.304%" fx="-40.333%" fy="92.304%" r="110.014%" gradientTransform="matrix(.73333 0 0 1 -.108 0)" id="d"><stop stop-color="#FEF4D0" offset="0%"/><stop stop-color="#F8AD72" offset="34.16%"/><stop stop-color="#F82075" offset="69.55%"/><stop stop-color="#412F6D" offset="100%"/></radialGradient><radialGradient cx="1556.92%" cy="-37.578%" fx="1556.92%" fy="-37.578%" r="1638.277%" gradientTransform="matrix(1 0 0 .35524 0 -.242)" id="e"><stop stop-color="#FEF4D0" offset="0%"/><stop stop-color="#F8AD72" offset="34.16%"/><stop stop-color="#F82075" offset="69.55%"/><stop stop-color="#412F6D" offset="100%"/></radialGradient><radialGradient cx="136.029%" cy="40.943%" fx="136.029%" fy="40.943%" r="161.628%" gradientTransform="matrix(.57757 0 0 1 .575 0)" id="f"><stop stop-color="#FEF4D0" offset="0%"/><stop stop-color="#F8AD72" offset="34.16%"/><stop stop-color="#F82075" offset="69.55%"/><stop stop-color="#412F6D" offset="100%"/></radialGradient><radialGradient cx="39.3%" cy="64.234%" fx="39.3%" fy="64.234%" r="88.793%" gradientTransform="matrix(1 0 0 .8375 0 .104)" id="g"><stop stop-color="#FEF4D0" offset="0%"/><stop stop-color="#F8AD72" offset="34.16%"/><stop stop-color="#F82075" offset="69.55%"/><stop stop-color="#412F6D" offset="100%"/></radialGradient><radialGradient cx="-13.065%" cy="219.009%" fx="-13.065%" fy="219.009%" r="184.596%" gradientTransform="matrix(.56964 0 0 1 -.056 0)" id="h"><stop stop-color="#F8AD72" offset="0%"/><stop stop-color="#F82075" offset="50.99%"/><stop stop-color="#412F6D" offset="100%"/></radialGradient><radialGradient cx="8.491%" cy="-136.222%" fx="8.491%" fy="-136.222%" r="281.712%" gradientTransform="matrix(1 0 0 .93897 0 -.083)" id="i"><stop stop-color="#C8175E" offset="0%"/><stop stop-color="#551549" offset="62.13%"/><stop stop-color="#0C143B" offset="100%"/></radialGradient><radialGradient cx="54.49%" cy="-108.774%" fx="54.49%" fy="-108.774%" r="183.598%" gradientTransform="matrix(1 0 0 .93897 0 -.066)" id="j"><stop stop-color="#F8AD72" offset="0%"/><stop stop-color="#F82075" offset="50.99%"/><stop stop-color="#412F6D" offset="100%"/></radialGradient><radialGradient cx="124.415%" cy="36.89%" fx="124.415%" fy="36.89%" r="145.358%" gradientTransform="matrix(1 0 0 .73743 0 .097)" id="k"><stop stop-color="#FEF4D0" offset="0%"/><stop stop-color="#F8AD72" offset="34.16%"/><stop stop-color="#F82075" offset="69.55%"/><stop stop-color="#412F6D" offset="100%"/></radialGradient><radialGradient cx="-63.026%" cy="92.41%" fx="-63.026%" fy="92.41%" r="161.088%" gradientTransform="matrix(1 0 0 .7684 0 .214)" id="l"><stop stop-color="#53D9D7" offset="0%"/><stop stop-color="#1E254A" offset="70.3%"/><stop stop-color="#070B1F" offset="100%"/></radialGradient><radialGradient cx="78.48%" cy="-87.205%" fx="78.48%" fy="-87.205%" r="196.04%" gradientTransform="matrix(1 0 0 .94064 0 -.052)" id="m"><stop stop-color="#FEF4D0" offset="0%"/><stop stop-color="#F8AD72" offset="34.16%"/><stop stop-color="#F82075" offset="69.55%"/><stop stop-color="#412F6D" offset="100%"/></radialGradient><radialGradient cx="99.031%" cy="13.115%" fx="99.031%" fy="13.115%" r="141.126%" gradientTransform="matrix(1 0 0 .84456 0 .02)" id="n"><stop stop-color="#F8AD72" offset="0%"/><stop stop-color="#F82075" offset="50.99%"/><stop stop-color="#412F6D" offset="100%"/></radialGradient><radialGradient cx="160.716%" cy="-16.814%" fx="160.716%" fy="-16.814%" r="218.338%" gradientTransform="matrix(1 0 0 .74863 0 -.042)" id="o"><stop stop-color="#FEF4D0" offset="0%"/><stop stop-color="#F8AD72" offset="34.16%"/><stop stop-color="#F82075" offset="69.55%"/><stop stop-color="#412F6D" offset="100%"/></radialGradient><radialGradient cx="103.963%" cy="16.488%" fx="103.963%" fy="16.488%" r="355.926%" gradientTransform="matrix(1 0 0 .8772 0 .02)" id="p"><stop stop-color="#F8AD72" offset="0%"/><stop stop-color="#F82075" offset="50.99%"/><stop stop-color="#412F6D" offset="100%"/></radialGradient><radialGradient cx="-62.931%" cy="123.18%" fx="-62.931%" fy="123.18%" r="178.986%" gradientTransform="matrix(1 0 0 .78892 0 .26)" id="q"><stop stop-color="#53D9D7" offset="0%"/><stop stop-color="#1E254A" offset="70.3%"/><stop stop-color="#070B1F" offset="100%"/></radialGradient><radialGradient cx="77.608%" cy="-104.73%" fx="77.608%" fy="-104.73%" r="279.851%" gradientTransform="matrix(1 0 0 .74168 0 -.27)" id="r"><stop stop-color="#F8AD72" offset="0%"/><stop stop-color="#F82075" offset="50.99%"/><stop stop-color="#412F6D" offset="89.52%"/></radialGradient><radialGradient cx="165.691%" cy="16.517%" fx="165.691%" fy="16.517%" r="206.689%" gradientTransform="matrix(1 0 0 .77284 0 .038)" id="s"><stop stop-color="#F8AD72" offset="0%"/><stop stop-color="#F82075" offset="50.99%"/><stop stop-color="#412F6D" offset="100%"/></radialGradient><radialGradient cx="99.307%" cy="30.972%" fx="99.307%" fy="30.972%" r="105.902%" gradientTransform="matrix(.6001 0 0 1 .397 0)" id="t"><stop stop-color="#FEF4D0" offset="0%"/><stop stop-color="#F8AD72" offset="34.16%"/><stop stop-color="#F82075" offset="69.55%"/><stop stop-color="#412F6D" offset="100%"/></radialGradient><radialGradient cx="199.824%" cy="-25.279%" fx="199.824%" fy="-25.279%" r="7532.914%" gradientTransform="matrix(1 0 0 .02 0 -.248)" id="u"><stop stop-color="#F8AD72" offset="0%"/><stop stop-color="#F82075" offset="50.99%"/><stop stop-color="#412F6D" offset="100%"/></radialGradient><rect id="a" x="0" y="0" width="150" height="150" rx="30"/><path d="M0 121.192c25.082-10.295 50.11-15.442 75.082-15.442 24.973 0 49.945 5.147 74.918 15.442 0 15.91-12.898 28.808-28.808 28.808H28.808C12.898 150 0 137.102 0 121.192z" id="v"/></defs><g fill="none" fill-rule="evenodd"><mask id="b" fill="#fff"><use xlink:href="#a"/></mask><use fill="#1D0D28" xlink:href="#a"/><g mask="url(#b)" opacity=".85"><g transform="translate(-.375 -70.125)" fill-rule="nonzero"><path d="M116.445 141.449c-31 0-60.201-7.287-82.087-20.536C12.172 107.543 0 89.718 0 70.748s12.172-36.856 34.358-50.166C56.304 7.333 85.445.047 116.445.047s60.201 7.286 82.087 20.535c22.186 13.37 34.358 31.196 34.358 50.166 0 18.97-12.172 36.856-34.358 50.165-21.886 13.249-51.027 20.536-82.087 20.536zm0-138.994c-62.9 0-114.047 30.593-114.047 68.233 0 37.639 51.148 68.232 114.047 68.232 62.9 0 114.047-30.593 114.047-68.232 0-37.64-51.147-68.233-114.047-68.233z" fill="url(#c)" transform="translate(0 56.25)"/><path d="M211.875 98.251v-.303c-.06-6.798-2.211-13.414-6.634-19.666-4.543-6.494-11.118-12.32-19.605-17.237-8.487-4.977-18.409-8.8-29.407-11.471-10.639-2.55-21.875-3.824-33.47-3.824-11.596 0-22.713 1.275-33.412 3.824-10.998 2.67-20.86 6.494-29.287 11.471L60 83.26l9.503 5.584c29.288-17.298 77.044-17.298 106.57 0 9.981 5.827 16.616 12.989 19.843 20.394-3.227 7.344-9.682 14.263-19.425 20.03v22.274l9.504 5.584c8.427-4.977 14.942-10.804 19.365-17.237 4.184-6.13 6.395-12.686 6.395-19.362l.06-22.214c.06-.122.06-.061.06-.061z" fill="url(#d)"/><path d="M10.045 5.607l-.06 21.908L.3 21.993.42.086z" transform="translate(60 60.085)" fill="url(#e)"/><path d="M126.79 15.545c8.54 4.922 15.157 10.684 19.728 17.046 4.391 6.242 6.616 12.664 6.677 19.446.06 6.722-2.106 13.265-6.436 19.447-4.451 6.422-11.067 12.184-19.548 17.045l-9.563-5.522c29.472-17.105 29.291-44.894-.301-62C87.694 3.9 39.637 3.9 10.105 21.007L.54 15.485c8.481-4.922 18.465-8.703 29.472-11.344C40.66 1.621 51.967.361 63.636.361c11.668 0 22.916 1.26 33.682 3.78 10.947 2.641 20.931 6.482 29.472 11.404z" fill="url(#f)" transform="translate(60 44.625)"/><path fill="url(#g)" d="M62.964 64.5L42.375 76.646v15.243l4.476 2.611L67.5 82.354V67.172z"/><path fill="url(#h)" d="M25.753 2.64l-21.061 12L.052 12 21.113 0z" transform="translate(41.625 64.5)"/><path d="M86.417 86.09c-1.258-4.857-3.834-8.455-7.309-10.435h.06l-6.17-3.598C66.948 68.22 59.699 66 51.972 66c-21.865 0-39.597 17.752-39.597 39.641 0 16.193 9.645 30.106 23.542 36.283l3.535 2.04c3.235 1.919 7.428 2.458 12.04 1.319 2.516-.6 5.212-1.68 7.908-3.239 15.455-8.995 27.975-30.645 27.975-48.457-.06-2.699-.36-5.158-.958-7.496z" fill="url(#i)"/><path d="M86.417 86.09c-1.258-4.857-3.834-8.455-7.309-10.435h.06l-6.17-3.598C66.948 68.22 59.699 66 51.972 66c-21.865 0-39.597 17.752-39.597 39.641 0 16.193 9.645 30.106 23.542 36.283l3.535 2.04c3.235 1.919 7.428 2.458 12.04 1.319 2.516-.6 5.212-1.68 7.908-3.239 15.455-8.995 27.975-30.645 27.975-48.457-.06-2.699-.36-5.158-.958-7.496z" fill="url(#j)"/><path d="M47.814 1.918C42.742-1.039 35.702-.677 27.946 3.91 12.552 12.962.082 34.748.082 52.672c0 8.87 3.103 15.147 8.174 18.104l7.876 4.647c-5.012-2.957-8.114-9.233-8.174-18.105-.06-17.923 12.47-39.77 27.863-48.761C43.578 4.03 50.618 3.608 55.69 6.565l-7.876-4.647z" fill="url(#k)" transform="translate(22.875 67.125)"/><path d="M36 8.738C51.394-.315 63.983 6.928 63.983 24.85c.06 17.923-12.41 39.77-27.863 48.762C20.726 82.665 8.137 75.423 8.137 57.5c0-17.864 12.47-39.71 27.863-48.762z" fill="url(#l)" transform="translate(22.875 67.125)"/><path d="M166.676 123.05c-.06-.06-.06-.12-.12-.18l-.06-.06c-.24-.302-.54-.604-.781-.905l-.12-.12-.361-.363-.12-.12c-.241-.181-.421-.423-.722-.664l-.18-.18c-.24-.182-.541-.363-.782-.604-.06-.06-.12-.06-.12-.12a2.84 2.84 0 00-.721-.423c-.06 0-.06-.06-.12-.06h.06l-7.154-4.162c-.24-.181-.541-.302-.782-.543h.06l-7.935-4.645c-5.11-2.955-12.204-2.593-20.019 1.99-15.51 9.049-28.074 30.824-28.074 48.738 0 8.867 3.126 15.14 8.236 18.096l7.154 4.162c.24.12.42.301.721.422l7.755 4.524h.06l.12.06h-.06c.602.302 1.203.664 1.864.905.06.06.18.06.24.12h.06c1.503.543 3.006.845 4.69.905h.06c1.743.181 3.486.302 5.23.302 22.724 0 41.12-18.518 41.12-41.258.06-9.59-3.427-18.699-9.199-25.816z" fill="url(#m)"/><path d="M175.875 149.537c0 22.638-18.361 40.963-40.91 40.963-1.794 0-3.528-.12-5.203-.3-1.615-.18-3.17-.538-4.725-.898-6.28-2.275-10.227-8.983-10.287-18.924-.06-17.787 12.44-39.466 27.931-48.389 9.45-5.51 17.823-4.91 22.907.42.299.359.658.718.957 1.077.06.06.06.12.12.18 5.741 7.007 9.21 16.05 9.21 25.871z" fill="url(#n)"/><path d="M115.354 171.185c-.06-17.85 12.557-39.605 28.193-48.56 9.176-5.288 17.326-4.928 22.578-.12l-.06-.06c-5.132-5.409-13.584-5.95-23.122-.42-15.576 9.014-28.193 30.71-28.193 48.559 0 7.332 2.173 12.86 5.735 16.166-3.26-3.426-5.131-8.654-5.131-15.565z" fill="url(#o)"/><ellipse fill="url(#p)" cx="155.625" cy="140.063" rx="9.375" ry="10.688"/><path d="M47.275 22.32l-7.93-4.651c2.764 1.631 4.506 5.014 4.506 9.907 0 9.787-6.788 21.748-15.318 26.641-4.325 2.477-8.17 2.718-10.933 1.087l7.93 4.652c2.823 1.631 6.667 1.39 10.932-1.087 8.47-4.894 15.318-16.855 15.318-26.641 0-4.893-1.742-8.337-4.505-9.907z" fill="url(#q)" opacity=".85" transform="translate(23.625 67.125)"/><path d="M48.356 2.023C43.25-.937 36.162-.575 28.353 4.016 12.855 13.078.3 34.886.3 52.828c0 8.88 3.124 15.162 8.23 18.123l7.929 4.651c-5.046-2.96-8.17-9.243-8.23-18.123-.06-17.942 12.495-39.81 28.053-48.811 7.809-4.53 14.897-4.954 20.003-1.994l-7.93-4.651z" fill="url(#r)" transform="translate(23.625 67.125)"/><path d="M36.282 8.668C51.78-.394 64.455 6.856 64.455 24.798c.06 17.941-12.495 39.81-28.053 48.81C20.904 82.67 8.23 75.422 8.23 57.48S20.784 17.67 36.282 8.668zm.18 50.2c8.47-4.893 15.318-16.854 15.318-26.64 0-9.787-6.908-13.774-15.378-8.82-8.47 4.954-15.378 16.854-15.378 26.64.06 9.787 6.968 13.774 15.438 8.82z" fill="url(#s)" transform="translate(23.625 67.125)"/><path d="M73.326 88.26c-19.57 0-37.88-4.544-51.748-12.856C7.71 67.093.086 56.03.086 44.31c0-11.72 7.624-22.783 21.492-31.095C35.445 4.963 53.755.36 73.326.36c19.57 0 37.88 4.544 51.747 12.856 13.868 8.312 21.492 19.375 21.492 31.095 0 11.72-7.624 22.783-21.492 31.094-13.807 8.312-32.177 12.857-51.747 12.857zm0-87.184C33.344 1.076.746 20.51.746 44.37c0 23.859 32.598 43.293 72.58 43.293 39.981 0 72.579-19.434 72.579-43.293.12-23.86-32.478-43.294-72.58-43.294z" fill="url(#t)" transform="translate(50.25 15.75)"/><path fill="url(#u)" d="M127.125 28.125h1.5v75h-1.5z"/></g></g><use fill="#D82069" xlink:href="#v"/><text font-family="^cw\EO`W^, 迷你简汉真广标" font-size="24" letter-spacing="4.615" fill="#FFF"><tspan x="33.807" y="136">配音M</tspan></text></g></svg>